<svg width="32" height="32" viewBox="0 0 32 32" fill="none" xmlns="http://www.w3.org/2000/svg">
<path d="M10 20C9.76605 20.0047 9.53786 19.9272 9.35514 19.7811C9.17242 19.6349 9.04675 19.4293 9 19.2L6.66 7.41C6.52371 6.73054 6.15639 6.11921 5.62045 5.67989C5.08451 5.24056 4.413 5.00033 3.72 5H2C1.73478 5 1.48043 4.89464 1.29289 4.70711C1.10536 4.51957 1 4.26522 1 4C1 3.73478 1.10536 3.48043 1.29289 3.29289C1.48043 3.10536 1.73478 3 2 3H3.72C4.87265 2.99976 5.98999 3.39778 6.8829 4.12669C7.77582 4.8556 8.38947 5.87064 8.62 7L11 18.8C11.0291 18.9315 11.0312 19.0676 11.0064 19.1999C10.9816 19.3323 10.9303 19.4583 10.8556 19.5704C10.7809 19.6825 10.6843 19.7783 10.5716 19.8521C10.459 19.9259 10.3326 19.9762 10.2 20H10Z" fill="#101820"/>
<path d="M11 27H9.14C8.07939 26.9934 7.06176 26.5801 6.29702 25.8451C5.53227 25.1102 5.07876 24.1098 5.03001 23.0503C4.98127 21.9908 5.34102 20.953 6.03506 20.151C6.72909 19.349 7.70447 18.8439 8.76 18.74L27.17 17.07L28.78 9H8C7.73478 9 7.48043 8.89464 7.29289 8.70711C7.10535 8.51957 7 8.26522 7 8C7 7.73478 7.10535 7.48043 7.29289 7.29289C7.48043 7.10536 7.73478 7 8 7H30C30.1477 7.00098 30.2934 7.03466 30.4265 7.09864C30.5596 7.16261 30.6769 7.25529 30.77 7.37C30.8678 7.48247 30.9391 7.61537 30.9789 7.75897C31.0187 7.90257 31.0259 8.05326 31 8.2L29 18.2C28.9578 18.4115 28.8483 18.6037 28.6879 18.7478C28.5275 18.892 28.3248 18.9805 28.11 19L8.94 20.74C8.37508 20.7665 7.84385 21.0164 7.46315 21.4346C7.08245 21.8528 6.88347 22.4051 6.91 22.97C6.93652 23.5349 7.18636 24.0661 7.60457 24.4468C8.02278 24.8275 8.57509 25.0265 9.14 25H11C11.2652 25 11.5196 25.1054 11.7071 25.2929C11.8946 25.4804 12 25.7348 12 26C12 26.2652 11.8946 26.5196 11.7071 26.7071C11.5196 26.8946 11.2652 27 11 27Z" fill="#101820"/>
<path d="M26 30C25.2089 30 24.4355 29.7654 23.7777 29.3259C23.1199 28.8864 22.6072 28.2616 22.3045 27.5307C22.0017 26.7998 21.9225 25.9956 22.0769 25.2196C22.2312 24.4437 22.6122 23.731 23.1716 23.1716C23.731 22.6122 24.4437 22.2312 25.2196 22.0769C25.9956 21.9225 26.7998 22.0017 27.5307 22.3045C28.2616 22.6072 28.8864 23.1199 29.3259 23.7777C29.7654 24.4355 30 25.2089 30 26C30 27.0609 29.5786 28.0783 28.8284 28.8284C28.0783 29.5786 27.0609 30 26 30ZM26 24C25.6044 24 25.2178 24.1173 24.8889 24.3371C24.56 24.5568 24.3036 24.8692 24.1522 25.2346C24.0009 25.6001 23.9613 26.0022 24.0384 26.3902C24.1156 26.7781 24.3061 27.1345 24.5858 27.4142C24.8655 27.6939 25.2219 27.8844 25.6098 27.9616C25.9978 28.0387 26.3999 27.9991 26.7654 27.8478C27.1308 27.6964 27.4432 27.44 27.6629 27.1111C27.8827 26.7822 28 26.3956 28 26C28 25.4696 27.7893 24.9609 27.4142 24.5858C27.0391 24.2107 26.5304 24 26 24Z" fill="#101820"/>
<path d="M14 30C13.2089 30 12.4355 29.7654 11.7777 29.3259C11.1199 28.8864 10.6072 28.2616 10.3045 27.5307C10.0017 26.7998 9.92252 25.9956 10.0769 25.2196C10.2312 24.4437 10.6122 23.731 11.1716 23.1716C11.731 22.6122 12.4437 22.2312 13.2196 22.0769C13.9956 21.9225 14.7998 22.0017 15.5307 22.3045C16.2616 22.6072 16.8864 23.1199 17.3259 23.7777C17.7654 24.4355 18 25.2089 18 26C18 27.0609 17.5786 28.0783 16.8284 28.8284C16.0783 29.5786 15.0609 30 14 30ZM14 24C13.6044 24 13.2178 24.1173 12.8889 24.3371C12.56 24.5568 12.3036 24.8692 12.1522 25.2346C12.0009 25.6001 11.9613 26.0022 12.0384 26.3902C12.1156 26.7781 12.3061 27.1345 12.5858 27.4142C12.8655 27.6939 13.2219 27.8844 13.6098 27.9616C13.9978 28.0387 14.3999 27.9991 14.7654 27.8478C15.1308 27.6964 15.4432 27.44 15.6629 27.1111C15.8827 26.7822 16 26.3956 16 26C16 25.4696 15.7893 24.9609 15.4142 24.5858C15.0391 24.2107 14.5304 24 14 24Z" fill="#101820"/>
<path d="M23 27H17C16.7348 27 16.4804 26.8946 16.2929 26.7071C16.1054 26.5196 16 26.2652 16 26C16 25.7348 16.1054 25.4804 16.2929 25.2929C16.4804 25.1054 16.7348 25 17 25H23C23.2652 25 23.5196 25.1054 23.7071 25.2929C23.8946 25.4804 24 25.7348 24 26C24 26.2652 23.8946 26.5196 23.7071 26.7071C23.5196 26.8946 23.2652 27 23 27Z" fill="#101820"/>
<path d="M18.5 17.1563C17.7769 17.1563 17.07 16.9418 16.4687 16.5401C15.8674 16.1383 15.3988 15.5673 15.1221 14.8992C14.8453 14.2311 14.7729 13.4959 14.914 12.7867C15.0551 12.0775 15.4033 11.426 15.9146 10.9146C16.426 10.4033 17.0775 10.0551 17.7867 9.91401C18.4959 9.77293 19.2311 9.84533 19.8992 10.1221C20.5673 10.3988 21.1383 10.8674 21.5401 11.4687C21.9418 12.07 22.1563 12.7769 22.1563 13.5C22.1563 14.4697 21.771 15.3997 21.0854 16.0854C20.3997 16.771 19.4697 17.1563 18.5 17.1563V17.1563ZM18.5 10.4063C17.8881 10.4063 17.29 10.5877 16.7812 10.9276C16.2724 11.2676 15.8759 11.7508 15.6417 12.3161C15.4076 12.8814 15.3463 13.5034 15.4657 14.1036C15.5851 14.7037 15.8797 15.2549 16.3124 15.6876C16.7451 16.1203 17.2963 16.4149 17.8964 16.5343C18.4966 16.6537 19.1186 16.5924 19.6839 16.3583C20.2492 16.1241 20.7324 15.7276 21.0724 15.2188C21.4123 14.71 21.5938 14.1119 21.5938 13.5C21.5938 12.6795 21.2678 11.8926 20.6876 11.3124C20.1074 10.7322 19.3205 10.4063 18.5 10.4063Z" fill="black"/>
<path d="M18.5 15.4688C18.4254 15.4688 18.3539 15.4391 18.3011 15.3864C18.2484 15.3336 18.2188 15.2621 18.2188 15.1875V11.8125C18.2188 11.7379 18.2484 11.6664 18.3011 11.6136C18.3539 11.5609 18.4254 11.5312 18.5 11.5312C18.5746 11.5312 18.6461 11.5609 18.6989 11.6136C18.7516 11.6664 18.7812 11.7379 18.7812 11.8125V15.1875C18.7812 15.2621 18.7516 15.3336 18.6989 15.3864C18.6461 15.4391 18.5746 15.4688 18.5 15.4688Z" fill="black"/>
<path d="M20.1875 13.7812H16.8125C16.7379 13.7812 16.6664 13.7516 16.6136 13.6989C16.5609 13.6461 16.5312 13.5746 16.5312 13.5C16.5312 13.4254 16.5609 13.3539 16.6136 13.3011C16.6664 13.2484 16.7379 13.2188 16.8125 13.2188H20.1875C20.2621 13.2188 20.3336 13.2484 20.3864 13.3011C20.4391 13.3539 20.4688 13.4254 20.4688 13.5C20.4688 13.5746 20.4391 13.6461 20.3864 13.6989C20.3336 13.7516 20.2621 13.7812 20.1875 13.7812Z" fill="black"/>
</svg>
